PathFileType	4	(X/Y/Z)	./resultDataOpenSim/trcMotMarkerGrf/sub10/qtm-12-05.trc
DataRate	CameraRate	NumFrames	NumMarkers	Units	OrigDataRate	OrigDataStartFrame	OrigNumFrames
250.000000	250.000000	10	24	m	250.000000	127	507
Frame#	Time	L.Toe.Tip			R.Toe.Tip			L.Ankle.Lat			R.Ankle.Lat			L.Ankle.Med			R.Ankle.Med			L.Heel			R.Heel			L.Knee.Lat			R.Knee.Lat			L.Knee.Med			R.Knee.Med			L.Thigh.Upper			R.Thigh.Upper			L.ASIS			R.ASIS			V.Sacral			L.Acromium			R.Acromium			C7			L.Elbow			R.Elbow			L.Wrist.Lat			R.Wrist.Lat
		X1	Y1	Z1	X2	Y2	Z2	X3	Y3	Z3	X4	Y4	Z4	X5	Y5	Z5	X6	Y6	Z6	X7	Y7	Z7	X8	Y8	Z8	X9	Y9	Z9	X10	Y10	Z10	X11	Y11	Z11	X12	Y12	Z12	X13	Y13	Z13	X14	Y14	Z14	X15	Y15	Z15	X16	Y16	Z16	X17	Y17	Z17	X18	Y18	Z18	X19	Y19	Z19	X20	Y20	Z20	X21	Y21	Z21	X22	Y22	Z22	X23	Y23	Z23	X24	Y24	Z24

127	0.504	-0.50155368	0.058658068	-0.22794205	-0.74741057	0.039652552	-0.075432334	-0.63132078	0.098427339	-0.2486063	-0.88684442	0.053443853	-0.049093988	-0.61112616	0.11756136	-0.16506934	-0.86686732	0.081972057	-0.13222624	-0.69483382	0.069073517	-0.20020722	-0.93733659	0.029182437	-0.10053083	-0.56430317	0.48368128	-0.24807298	-0.80752164	0.44903928	0.0078849566	-0.55140953	0.45664186	-0.12899936	-0.78989326	0.45367699	-0.11999416	-0.69301891	0.84127671	-0.29600897	-0.79387762	0.86000605	0.073541553	-0.66236826	0.951656	-0.21665148	-0.70827153	0.95372001	0.025157454	-0.8790696	0.96252202	-0.14403444	-0.73085087	1.4289903	-0.2458883	-0.77852394	1.4060494	0.075746212	-0.83692847	1.448031	-0.096487617	-0.84745429	1.116005	-0.35400817	-0.76555191	1.0496122	0.12831843	-0.72154454	0.90557514	-0.38017728	-0.55952906	0.91385117	0.1520137
128	0.508	-0.48389543	0.059776481	-0.22619096	-0.74718542	0.039713423	-0.07543064	-0.61478121	0.095453022	-0.24712532	-0.88715203	0.053643346	-0.04933435	-0.59548906	0.11521543	-0.16338195	-0.86639455	0.081958749	-0.13234244	-0.67701662	0.064364687	-0.19837874	-0.93734643	0.029457007	-0.10137695	-0.55850831	0.48260112	-0.24723581	-0.80498944	0.44851838	0.0075720099	-0.54619232	0.45572156	-0.12826402	-0.78738388	0.45325206	-0.12032143	-0.68667907	0.8407996	-0.29572022	-0.79040708	0.8594653	0.07383056	-0.65695561	0.95106407	-0.21643254	-0.70401159	0.9530811	0.025384431	-0.87373841	0.96136418	-0.1446826	-0.72559906	1.4281004	-0.24575147	-0.77383733	1.4052837	0.075810379	-0.83203753	1.4472912	-0.096457875	-0.84313781	1.1156878	-0.35279035	-0.75864029	1.048716	0.12809789	-0.71919694	0.90439064	-0.38081573	-0.55027533	0.91604977	0.15046824
129	0.512	-0.46633716	0.061056225	-0.22428737	-0.74701374	0.039765045	-0.075484204	-0.59826088	0.092673423	-0.24559836	-0.88731345	0.053808023	-0.049549447	-0.57995717	0.11302041	-0.16175242	-0.86600132	0.081928571	-0.1325258	-0.65918401	0.059901391	-0.19667529	-0.93735032	0.029694587	-0.10207781	-0.55277053	0.48137775	-0.24649358	-0.80209912	0.44809204	0.0072931969	-0.54107885	0.45467649	-0.12762436	-0.78482747	0.45282009	-0.12067155	-0.68030697	0.84026076	-0.29543094	-0.78673919	0.85893963	0.073853727	-0.65146073	0.95043679	-0.21620899	-0.69969478	0.95244847	0.025565548	-0.86833549	0.96026424	-0.14505689	-0.72033297	1.4271576	-0.24564055	-0.76910573	1.4044664	0.075860283	-0.82713325	1.4465181	-0.096422213	-0.83889804	1.1152511	-0.35182821	-0.75174832	1.0477935	0.12783572	-0.71682736	0.90318642	-0.38149269	-0.54114433	0.91825743	0.14893771
130	0.516	-0.44894285	0.062477907	-0.22222375	-0.74690841	0.03976523	-0.07559078	-0.5817271	0.090109844	-0.2439975	-0.8871206	0.05389653	-0.04968763	-0.56445718	0.1111074	-0.16007193	-0.86571536	0.081871646	-0.13276321	-0.64164531	0.055722467	-0.19522206	-0.93734315	0.029852149	-0.10246613	-0.54709067	0.48002872	-0.2458512	-0.79897822	0.44770092	0.00705111	-0.53599999	0.45350649	-0.12703681	-0.7822116	0.45238421	-0.12102337	-0.6737732	0.83967209	-0.29510576	-0.7829367	0.85839755	0.073743491	-0.64590452	0.94978277	-0.21597823	-0.69533264	0.95180812	0.02571092	-0.86298581	0.95918554	-0.145388	-0.71504669	1.4261713	-0.24555739	-0.76432018	1.4035918	0.075891601	-0.82221068	1.4457111	-0.096380467	-0.8347136	1.1146981	-0.35099513	-0.74489599	1.0468573	0.12756097	-0.71444816	0.90196083	-0.38221546	-0.53211152	0.92045796	0.14739862
131	0.52	-0.43173638	0.064045341	-0.2199712	-0.74684178	0.039710178	-0.075716442	-0.5651505	0.087783259	-0.24228747	-0.88672211	0.053936178	-0.049774397	-0.54895536	0.10952039	-0.15829537	-0.86547228	0.081806437	-0.1330026	-0.62442793	0.051913891	-0.19383321	-0.93732807	0.02995416	-0.10263419	-0.54147143	0.47856738	-0.2453126	-0.79585627	0.44725016	0.006826889	-0.53093345	0.45220937	-0.12648709	-0.77952786	0.45193785	-0.12135347	-0.66708747	0.83904682	-0.29473511	-0.77902489	0.85782389	0.07357603	-0.6404006	0.94908928	-0.21576543	-0.69093403	0.95114465	0.025829458	-0.85779014	0.95802388	-0.14590311	-0.7097501	1.4251425	-0.24549914	-0.75948293	1.4026572	0.075905339	-0.81726153	1.4448636	-0.096342303	-0.83047639	1.1140574	-0.34986065	-0.73811345	1.0459252	0.12731136	-0.71205338	0.90071305	-0.38298013	-0.52316274	0.92263745	0.14583635
132	0.524	-0.41471182	0.065780068	-0.21750604	-0.74678248	0.039627562	-0.075831741	-0.54854427	0.0857147	-0.24044684	-0.8863924	0.053974997	-0.049861839	-0.53342849	0.10825867	-0.1564297	-0.86520202	0.081747039	-0.1332064	-0.60744062	0.048546925	-0.19225616	-0.93730826	0.03003736	-0.10272856	-0.53591039	0.47700217	-0.24488581	-0.79286261	0.44670041	0.0065995545	-0.52588393	0.45079123	-0.12597963	-0.77677274	0.45146308	-0.12165069	-0.66048326	0.83836734	-0.29435197	-0.77502376	0.85721711	0.073396917	-0.63498011	0.94834147	-0.21557159	-0.68650283	0.95045412	0.025932185	-0.85283007	0.95673064	-0.14669522	-0.70446874	1.4240631	-0.24545413	-0.75460962	1.401664	0.075910602	-0.81228235	1.443969	-0.096319359	-0.82617364	1.113324	-0.34842555	-0.73142105	1.0450102	0.12711334	-0.70961299	0.89944531	-0.38376459	-0.51429336	0.92478868	0.14424325
133	0.528	-0.39787504	0.067709959	-0.21481692	-0.74671185	0.039545457	-0.075923442	-0.53197355	0.083916256	-0.23848161	-0.88621559	0.054031654	-0.049964622	-0.51788956	0.10731588	-0.15445921	-0.86487252	0.081697028	-0.13336406	-0.59057733	0.045601583	-0.19041348	-0.93728475	0.030120599	-0.10282383	-0.53039768	0.47534557	-0.24458098	-0.78998391	0.44607453	0.0063639587	-0.52086528	0.44926306	-0.12552978	-0.77393957	0.45094488	-0.12191195	-0.65413748	0.83761028	-0.29397518	-0.77095235	0.85657516	0.073225291	-0.62946552	0.94754096	-0.21534133	-0.68203785	0.94974605	0.026028388	-0.84802783	0.95535129	-0.14766403	-0.69922543	1.4229285	-0.24541456	-0.74972171	1.4006143	0.075921524	-0.80727452	1.4430258	-0.096312648	-0.82187614	1.1124701	-0.34703775	-0.72481095	1.0441128	0.1269654	-0.7071041	0.89815742	-0.3845491	-0.50550661	0.92691225	0.1426196
134	0.532	-0.38125088	0.069858485	-0.21189924	-0.74663607	0.03946761	-0.075996334	-0.51550701	0.082388265	-0.23640628	-0.88612838	0.054101886	-0.050069301	-0.50244286	0.10666776	-0.1523179	-0.8645177	0.081648862	-0.13350438	-0.57366927	0.042950236	-0.18844056	-0.93725832	0.030209496	-0.10293337	-0.52488857	0.47362564	-0.24439669	-0.78717467	0.44540252	0.006128293	-0.51588709	0.44763801	-0.12515133	-0.77101915	0.45037947	-0.12213694	-0.64802319	0.83677242	-0.29358854	-0.76681061	0.85589552	0.073042262	-0.62360304	0.94670516	-0.21500251	-0.6775386	0.949035	0.026120436	-0.84313213	0.95397825	-0.14857638	-0.69399691	1.4217454	-0.24537663	-0.74484064	1.3995057	0.075951337	-0.80223987	1.4420347	-0.096317185	-0.81761931	1.1114883	-0.3458891	-0.71824801	1.0432231	0.12683971	-0.70453546	0.89684494	-0.38533533	-0.49680991	0.92900917	0.14097026
135	0.536	-0.36487158	0.072232885	-0.20875376	-0.74658408	0.039371274	-0.07606834	-0.49917294	0.081125315	-0.2342214	-0.88605936	0.054178919	-0.050162323	-0.4872312	0.10627406	-0.14997718	-0.8642107	0.081584067	-0.13368195	-0.55660881	0.040470187	-0.18650988	-0.93723031	0.030304472	-0.10304637	-0.51931139	0.47188219	-0.24430893	-0.78441847	0.44470219	0.0059006175	-0.51094736	0.44593232	-0.12484387	-0.76800778	0.44976731	-0.12232773	-0.64204984	0.83585916	-0.2931816	-0.76260305	0.85518485	0.072836752	-0.61740646	0.94583982	-0.21455564	-0.67301248	0.94832828	0.026212364	-0.83795988	0.95266485	-0.14927319	-0.68869591	1.4205231	-0.24532655	-0.73998126	1.398335	0.076002649	-0.79718273	1.4409958	-0.096333958	-0.81337892	1.110394	-0.34491061	-0.7116852	1.0423277	0.12669787	-0.70193042	0.89550444	-0.3861356	-0.48820726	0.93107175	0.13929386
136	0.54	-0.34877459	0.074814607	-0.20539201	-0.74657102	0.039234142	-0.076145667	-0.48298874	0.080117878	-0.23193222	-0.88597454	0.0542592	-0.05024012	-0.47232174	0.10610297	-0.14754606	-0.86398851	0.081489986	-0.13391552	-0.53953455	0.038181503	-0.18464141	-0.93720206	0.030404499	-0.10315117	-0.51363207	0.47014779	-0.24427104	-0.78170138	0.4439879	0.0056919657	-0.50603432	0.44416462	-0.12458946	-0.76491336	0.44910654	-0.12248552	-0.6361643	0.83487562	-0.29276331	-0.75837391	0.85445306	0.07266455	-0.61119855	0.94492379	-0.21408592	-0.66847664	0.94761692	0.026319216	-0.83253129	0.95139409	-0.14977229	-0.6832567	1.4192677	-0.24525144	-0.73514708	1.3971075	0.076066122	-0.79211241	1.4399091	-0.096366917	-0.80912422	1.1092104	-0.34395006	-0.70507907	1.0414106	0.12650632	-0.69929946	0.89413665	-0.38695254	-0.47969562	0.93308794	0.13757904
